#tb 0: 1/25
0,          0,          0,        1,   663552, 0xc3f7d47b
0,          1,          1,        1,   663552, 0xd43ed327
0,          2,          2,        1,   663552, 0xcf2fd4b9
0,          3,          3,        1,   663552, 0x5752d511
0,          4,          4,        1,   663552, 0x2427d5d3
0,          5,          5,        1,   663552, 0x7ee8d43d
0,          6,          6,        1,   663552, 0xf16bd5d7
0,          7,          7,        1,   663552, 0xe86cd5c7
0,          8,          8,        1,   663552, 0x760ad43f
0,          9,          9,        1,   663552, 0x2b52d243
0,         10,         10,        1,   663552, 0x98f9d437
0,         11,         11,        1,   663552, 0xc9cdd1b3
0,         12,         12,        1,   663552, 0x5378d1e7
0,         13,         13,        1,   663552, 0xd538d275
0,         14,         14,        1,   663552, 0x695cd0bd
0,         15,         15,        1,   663552, 0x5571d02b
0,         16,         16,        1,   663552, 0x60bfd375
0,         17,         17,        1,   663552, 0x9dc3d435
0,         18,         18,        1,   663552, 0x8fb7d075
0,         19,         19,        1,   663552, 0x969ad181
0,         20,         20,        1,   663552, 0x4d9bd299
0,         21,         21,        1,   663552, 0x1564d3b7
0,         22,         22,        1,   663552, 0xb26ad175
0,         23,         23,        1,   663552, 0x1194d08b
0,         24,         24,        1,   663552, 0x2dd8d259
0,         25,         25,        1,   663552, 0x470ed159
0,         26,         26,        1,   663552, 0xf1b9cd67
0,         27,         27,        1,   663552, 0x15c0ce0b
0,         28,         28,        1,   663552, 0x57bdcdcb
0,         29,         29,        1,   663552, 0x8b6ccd15
0,         30,         30,        1,   663552, 0xa329cc7f
0,         31,         31,        1,   663552, 0x6945cabd
0,         32,         32,        1,   663552, 0x4ca4cacb
0,         33,         33,        1,   663552, 0x996fca55
0,         34,         34,        1,   663552, 0x252bcc73
0,         35,         35,        1,   663552, 0x1072cceb
0,         36,         36,        1,   663552, 0x1e5dce5d
0,         37,         37,        1,   663552, 0xeabecf17
0,         38,         38,        1,   663552, 0x5601d139
0,         39,         39,        1,   663552, 0xd843d211
0,         40,         40,        1,   663552, 0x6ee8d08f
0,         41,         41,        1,   663552, 0x2519cdc9
0,         42,         42,        1,   663552, 0x1381ce55
0,         43,         43,        1,   663552, 0x5e26cbed
0,         44,         44,        1,   663552, 0xa14ed151
0,         45,         45,        1,   663552, 0xbaddd4af
0,         46,         46,        1,   663552, 0xa3b9d405
0,         47,         47,        1,   663552, 0x4a40d3c5
0,         48,         48,        1,   663552, 0xc98bd245
0,         49,         49,        1,   663552, 0xbec6d2f7
